<svg width="40" height="40" viewBox="0 0 40 40" fill="none" xmlns="http://www.w3.org/2000/svg">
<rect x="1" y="1" width="38" height="38" rx="19" fill="#E6E3E3" stroke="white" stroke-width="2"/>
<path d="M25.6 15.7913L27.44 12.6113C27.6 12.3013 27.48 11.9213 27.18 11.7613C26.89 11.6113 26.53 11.7013 26.35 11.9813L24.47 15.2213C21.61 14.0113 18.39 14.0113 15.53 15.2213L13.65 11.9813C13.46 11.6913 13.07 11.6013 12.78 11.7813C12.5 11.9613 12.41 12.3213 12.56 12.6113L14.4 15.7913C11.3 17.5613 9.28 20.7513 9 24.3113H31C30.72 20.7513 28.7 17.5613 25.6 15.7913ZM15 21.5613C14.31 21.5613 13.75 21.0013 13.75 20.3113C13.75 19.6213 14.31 19.0613 15 19.0613C15.69 19.0613 16.25 19.6213 16.25 20.3113C16.25 21.0013 15.69 21.5613 15 21.5613ZM25 21.5613C24.31 21.5613 23.75 21.0013 23.75 20.3113C23.75 19.6213 24.31 19.0613 25 19.0613C25.69 19.0613 26.25 19.6213 26.25 20.3113C26.25 21.0013 25.69 21.5613 25 21.5613Z" fill="black"/>
</svg>
