<svg width="477" height="40" viewBox="0 0 477 40" fill="none" xmlns="http://www.w3.org/2000/svg">
<rect width="477" height="40" rx="6" fill="#333333"/>
<path d="M182.869 20.2281C182.87 19.5466 182.812 18.8664 182.696 18.1948H173.2V22.046H178.639C178.527 22.6611 178.292 23.2475 177.946 23.7697C177.601 24.292 177.152 24.7393 176.628 25.0848V27.5846H179.874C181.774 25.8444 182.869 23.271 182.869 20.2281Z" fill="#4285F4"/>
<path d="M173.2 29.9998C175.917 29.9998 178.205 29.1137 179.874 27.586L176.628 25.0861C175.724 25.6944 174.561 26.0416 173.2 26.0416C170.574 26.0416 168.344 24.2834 167.547 21.9141H164.203V24.4903C165.041 26.1465 166.327 27.5387 167.915 28.5116C169.504 29.4844 171.333 29.9997 173.2 29.9998Z" fill="#34A853"/>
<path d="M167.547 21.9141C167.126 20.6726 167.126 19.3281 167.547 18.0865V15.5103H164.203C163.498 16.9035 163.131 18.4411 163.131 20.0003C163.131 21.5595 163.498 23.0972 164.203 24.4904L167.547 21.9141Z" fill="#FBBC04"/>
<path d="M173.2 13.9588C174.636 13.9355 176.023 14.4743 177.063 15.4587L179.936 12.6047C178.114 10.9049 175.7 9.97166 173.2 10.0007C171.333 10.0007 169.504 10.516 167.915 11.4889C166.327 12.4617 165.041 13.854 164.203 15.5101L167.547 18.0864C168.344 15.717 170.574 13.9588 173.2 13.9588Z" fill="#EA4335"/>
<path d="M197.623 22.4365C197.623 22.2314 197.592 22.0492 197.528 21.8896C197.468 21.7301 197.361 21.5843 197.206 21.4521C197.051 21.32 196.833 21.1924 196.55 21.0693C196.272 20.9417 195.917 20.8118 195.484 20.6797C195.01 20.5339 194.572 20.3721 194.171 20.1943C193.775 20.012 193.428 19.8024 193.132 19.5654C192.836 19.3239 192.606 19.0482 192.442 18.7383C192.278 18.4238 192.196 18.0615 192.196 17.6514C192.196 17.2458 192.28 16.8766 192.449 16.5439C192.622 16.2113 192.866 15.9242 193.18 15.6826C193.499 15.4365 193.875 15.2474 194.308 15.1152C194.741 14.9785 195.219 14.9102 195.744 14.9102C196.482 14.9102 197.118 15.0469 197.651 15.3203C198.189 15.5938 198.601 15.9606 198.888 16.4209C199.18 16.8812 199.326 17.3893 199.326 17.9453H197.623C197.623 17.6172 197.553 17.3278 197.412 17.0771C197.275 16.8219 197.065 16.6214 196.783 16.4756C196.505 16.3298 196.151 16.2568 195.723 16.2568C195.317 16.2568 194.98 16.3184 194.711 16.4414C194.442 16.5645 194.242 16.7308 194.11 16.9404C193.978 17.1501 193.912 17.387 193.912 17.6514C193.912 17.8382 193.955 18.0091 194.041 18.1641C194.128 18.3145 194.26 18.4557 194.438 18.5879C194.616 18.7155 194.839 18.8363 195.108 18.9502C195.377 19.0641 195.693 19.1735 196.058 19.2783C196.609 19.4424 197.09 19.6247 197.5 19.8252C197.911 20.0212 198.252 20.2445 198.526 20.4951C198.799 20.7458 199.004 21.0306 199.141 21.3496C199.278 21.6641 199.346 22.0218 199.346 22.4229C199.346 22.8421 199.262 23.2204 199.093 23.5576C198.925 23.8903 198.683 24.1751 198.369 24.4121C198.059 24.6445 197.685 24.8245 197.247 24.9521C196.815 25.0752 196.331 25.1367 195.798 25.1367C195.32 25.1367 194.848 25.0729 194.383 24.9453C193.923 24.8177 193.504 24.624 193.125 24.3643C192.747 24.0999 192.446 23.7718 192.223 23.3799C192 22.9834 191.888 22.5208 191.888 21.9922H193.604C193.604 22.3158 193.659 22.5915 193.768 22.8193C193.882 23.0472 194.039 23.234 194.24 23.3799C194.44 23.5212 194.673 23.626 194.937 23.6943C195.206 23.7627 195.493 23.7969 195.798 23.7969C196.199 23.7969 196.534 23.7399 196.803 23.626C197.077 23.512 197.282 23.3525 197.418 23.1475C197.555 22.9424 197.623 22.7054 197.623 22.4365ZM202.563 17.6035V25H200.909V17.6035H202.563ZM200.8 15.6621C200.8 15.4115 200.882 15.2041 201.046 15.04C201.214 14.8714 201.447 14.7871 201.743 14.7871C202.035 14.7871 202.265 14.8714 202.433 15.04C202.602 15.2041 202.686 15.4115 202.686 15.6621C202.686 15.9082 202.602 16.1133 202.433 16.2773C202.265 16.4414 202.035 16.5234 201.743 16.5234C201.447 16.5234 201.214 16.4414 201.046 16.2773C200.882 16.1133 200.8 15.9082 200.8 15.6621ZM209.205 17.6035H210.702V24.7949C210.702 25.4603 210.561 26.0254 210.279 26.4902C209.996 26.9551 209.602 27.3083 209.096 27.5498C208.59 27.7959 208.004 27.9189 207.339 27.9189C207.057 27.9189 206.742 27.8779 206.396 27.7959C206.054 27.7139 205.721 27.5817 205.398 27.3994C205.079 27.2217 204.812 26.987 204.598 26.6953L205.37 25.7246C205.635 26.0391 205.926 26.2692 206.245 26.415C206.564 26.5609 206.899 26.6338 207.25 26.6338C207.628 26.6338 207.95 26.5632 208.214 26.4219C208.483 26.2852 208.69 26.0824 208.836 25.8135C208.982 25.5446 209.055 25.2165 209.055 24.8291V19.2783L209.205 17.6035ZM204.181 21.3838V21.2402C204.181 20.6797 204.249 20.1693 204.386 19.709C204.523 19.2441 204.719 18.8454 204.974 18.5127C205.229 18.1755 205.539 17.918 205.904 17.7402C206.268 17.5579 206.681 17.4668 207.141 17.4668C207.619 17.4668 208.027 17.5534 208.364 17.7266C208.706 17.8997 208.991 18.1481 209.219 18.4717C209.447 18.7907 209.625 19.1735 209.752 19.6201C209.884 20.0622 209.982 20.5544 210.046 21.0967V21.5547C209.987 22.0833 209.887 22.5664 209.745 23.0039C209.604 23.4414 209.417 23.8197 209.185 24.1387C208.952 24.4577 208.665 24.7038 208.323 24.877C207.986 25.0501 207.587 25.1367 207.127 25.1367C206.676 25.1367 206.268 25.0433 205.904 24.8564C205.543 24.6696 205.234 24.4076 204.974 24.0703C204.719 23.7331 204.523 23.3366 204.386 22.8809C204.249 22.4206 204.181 21.9215 204.181 21.3838ZM205.828 21.2402V21.3838C205.828 21.721 205.86 22.0355 205.924 22.3271C205.992 22.6188 206.095 22.8763 206.232 23.0996C206.373 23.3184 206.551 23.4915 206.765 23.6191C206.984 23.7422 207.241 23.8037 207.537 23.8037C207.925 23.8037 208.241 23.7217 208.487 23.5576C208.738 23.3936 208.93 23.1725 209.062 22.8945C209.198 22.612 209.294 22.2975 209.349 21.9512V20.7139C209.321 20.445 209.265 20.1943 209.178 19.9619C209.096 19.7295 208.984 19.5267 208.843 19.3535C208.702 19.1758 208.524 19.0391 208.31 18.9434C208.096 18.8431 207.843 18.793 207.551 18.793C207.255 18.793 206.997 18.8568 206.779 18.9844C206.56 19.112 206.38 19.2874 206.238 19.5107C206.102 19.734 205.999 19.9938 205.931 20.29C205.862 20.5863 205.828 20.903 205.828 21.2402ZM214.145 19.1826V25H212.498V17.6035H214.049L214.145 19.1826ZM213.851 21.0283L213.318 21.0215C213.323 20.4974 213.395 20.0166 213.537 19.5791C213.683 19.1416 213.883 18.7656 214.138 18.4512C214.398 18.1367 214.708 17.8952 215.068 17.7266C215.428 17.5534 215.829 17.4668 216.271 17.4668C216.627 17.4668 216.948 17.5169 217.235 17.6172C217.527 17.7129 217.775 17.8701 217.98 18.0889C218.19 18.3076 218.349 18.5924 218.459 18.9434C218.568 19.2897 218.623 19.7158 218.623 20.2217V25H216.968V20.2148C216.968 19.8594 216.916 19.5791 216.811 19.374C216.711 19.1644 216.563 19.0163 216.367 18.9297C216.175 18.8385 215.936 18.793 215.649 18.793C215.366 18.793 215.114 18.8522 214.89 18.9707C214.667 19.0892 214.478 19.251 214.323 19.4561C214.172 19.6611 214.056 19.8981 213.974 20.167C213.892 20.4359 213.851 20.723 213.851 21.0283ZM225.754 17.6035V25H224.1V17.6035H225.754ZM223.991 15.6621C223.991 15.4115 224.073 15.2041 224.237 15.04C224.405 14.8714 224.638 14.7871 224.934 14.7871C225.226 14.7871 225.456 14.8714 225.624 15.04C225.793 15.2041 225.877 15.4115 225.877 15.6621C225.877 15.9082 225.793 16.1133 225.624 16.2773C225.456 16.4414 225.226 16.5234 224.934 16.5234C224.638 16.5234 224.405 16.4414 224.237 16.2773C224.073 16.1133 223.991 15.9082 223.991 15.6621ZM229.293 19.1826V25H227.645V17.6035H229.197L229.293 19.1826ZM228.999 21.0283L228.466 21.0215C228.47 20.4974 228.543 20.0166 228.684 19.5791C228.83 19.1416 229.031 18.7656 229.286 18.4512C229.546 18.1367 229.856 17.8952 230.216 17.7266C230.576 17.5534 230.977 17.4668 231.419 17.4668C231.774 17.4668 232.096 17.5169 232.383 17.6172C232.674 17.7129 232.923 17.8701 233.128 18.0889C233.337 18.3076 233.497 18.5924 233.606 18.9434C233.716 19.2897 233.77 19.7158 233.77 20.2217V25H232.116V20.2148C232.116 19.8594 232.064 19.5791 231.959 19.374C231.859 19.1644 231.71 19.0163 231.514 18.9297C231.323 18.8385 231.084 18.793 230.797 18.793C230.514 18.793 230.261 18.8522 230.038 18.9707C229.815 19.0892 229.625 19.251 229.471 19.4561C229.32 19.6611 229.204 19.8981 229.122 20.167C229.04 20.4359 228.999 20.723 228.999 21.0283ZM241.148 23.3594L242.857 17.6035H243.91L243.623 19.3262L241.9 25H240.957L241.148 23.3594ZM240.143 17.6035L241.476 23.3867L241.586 25H240.533L238.53 17.6035H240.143ZM245.509 23.3184L246.801 17.6035H248.408L246.412 25H245.359L245.509 23.3184ZM244.087 17.6035L245.776 23.291L245.988 25H245.045L243.301 19.3193L243.014 17.6035H244.087ZM251.393 17.6035V25H249.738V17.6035H251.393ZM249.629 15.6621C249.629 15.4115 249.711 15.2041 249.875 15.04C250.044 14.8714 250.276 14.7871 250.572 14.7871C250.864 14.7871 251.094 14.8714 251.263 15.04C251.431 15.2041 251.516 15.4115 251.516 15.6621C251.516 15.9082 251.431 16.1133 251.263 16.2773C251.094 16.4414 250.864 16.5234 250.572 16.5234C250.276 16.5234 250.044 16.4414 249.875 16.2773C249.711 16.1133 249.629 15.9082 249.629 15.6621ZM256.688 17.6035V18.8066H252.518V17.6035H256.688ZM253.721 15.792H255.369V22.9561C255.369 23.1839 255.4 23.3594 255.464 23.4824C255.533 23.6009 255.626 23.6807 255.745 23.7217C255.863 23.7627 256.002 23.7832 256.162 23.7832C256.275 23.7832 256.385 23.7764 256.49 23.7627C256.594 23.749 256.679 23.7354 256.743 23.7217L256.749 24.9795C256.613 25.0205 256.453 25.057 256.271 25.0889C256.093 25.1208 255.888 25.1367 255.656 25.1367C255.277 25.1367 254.942 25.0706 254.651 24.9385C254.359 24.8018 254.131 24.5807 253.967 24.2754C253.803 23.9701 253.721 23.5645 253.721 23.0586V15.792ZM259.686 14.5V25H258.046V14.5H259.686ZM259.399 21.0283L258.866 21.0215C258.871 20.5111 258.941 20.0394 259.078 19.6064C259.219 19.1735 259.415 18.7975 259.666 18.4785C259.921 18.1549 260.226 17.9066 260.582 17.7334C260.937 17.5557 261.332 17.4668 261.764 17.4668C262.129 17.4668 262.457 17.5169 262.749 17.6172C263.045 17.7174 263.3 17.8792 263.514 18.1025C263.729 18.3213 263.89 18.6084 264 18.9639C264.114 19.3148 264.171 19.7432 264.171 20.249V25H262.516V20.2354C262.516 19.8799 262.464 19.5973 262.359 19.3877C262.259 19.1781 262.111 19.0277 261.915 18.9365C261.719 18.8408 261.48 18.793 261.197 18.793C260.901 18.793 260.639 18.8522 260.411 18.9707C260.188 19.0892 260.001 19.251 259.85 19.4561C259.7 19.6611 259.586 19.8981 259.509 20.167C259.436 20.4359 259.399 20.723 259.399 21.0283ZM277.332 19.9141V23.7148C277.19 23.9017 276.969 24.1068 276.669 24.3301C276.372 24.5488 275.978 24.738 275.486 24.8975C274.994 25.057 274.381 25.1367 273.647 25.1367C273.023 25.1367 272.451 25.0319 271.931 24.8223C271.412 24.6081 270.963 24.2959 270.585 23.8857C270.211 23.4756 269.921 22.9766 269.716 22.3887C269.511 21.7962 269.409 21.1217 269.409 20.3652V19.6748C269.409 18.9229 269.502 18.2529 269.689 17.665C269.88 17.0726 270.154 16.5713 270.509 16.1611C270.865 15.751 271.293 15.4411 271.795 15.2314C272.3 15.0173 272.872 14.9102 273.51 14.9102C274.326 14.9102 275.001 15.0469 275.534 15.3203C276.072 15.5892 276.486 15.9629 276.778 16.4414C277.07 16.9199 277.254 17.4668 277.332 18.082H275.65C275.595 17.7357 275.488 17.4258 275.329 17.1523C275.174 16.8789 274.95 16.6647 274.659 16.5098C274.372 16.3503 273.998 16.2705 273.538 16.2705C273.141 16.2705 272.793 16.3457 272.492 16.4961C272.191 16.6465 271.94 16.8675 271.74 17.1592C271.544 17.4508 271.396 17.8063 271.296 18.2256C271.195 18.6449 271.145 19.1234 271.145 19.6611V20.3652C271.145 20.9121 271.202 21.3975 271.316 21.8213C271.435 22.2451 271.603 22.6029 271.822 22.8945C272.045 23.1862 272.316 23.4072 272.635 23.5576C272.954 23.7035 273.314 23.7764 273.715 23.7764C274.107 23.7764 274.429 23.7445 274.679 23.6807C274.93 23.6123 275.128 23.5326 275.274 23.4414C275.424 23.3457 275.541 23.2546 275.623 23.168V21.1924H273.551V19.9141H277.332ZM278.854 21.3838V21.2266C278.854 20.6934 278.931 20.1989 279.086 19.7432C279.241 19.2829 279.464 18.8841 279.756 18.5469C280.052 18.2051 280.412 17.9408 280.836 17.7539C281.264 17.5625 281.747 17.4668 282.285 17.4668C282.827 17.4668 283.311 17.5625 283.734 17.7539C284.163 17.9408 284.525 18.2051 284.821 18.5469C285.118 18.8841 285.343 19.2829 285.498 19.7432C285.653 20.1989 285.73 20.6934 285.73 21.2266V21.3838C285.73 21.917 285.653 22.4115 285.498 22.8672C285.343 23.3229 285.118 23.7217 284.821 24.0635C284.525 24.4007 284.165 24.665 283.741 24.8564C283.317 25.0433 282.837 25.1367 282.299 25.1367C281.757 25.1367 281.271 25.0433 280.843 24.8564C280.419 24.665 280.059 24.4007 279.763 24.0635C279.466 23.7217 279.241 23.3229 279.086 22.8672C278.931 22.4115 278.854 21.917 278.854 21.3838ZM280.501 21.2266V21.3838C280.501 21.7165 280.535 22.0309 280.604 22.3271C280.672 22.6234 280.779 22.8831 280.925 23.1064C281.071 23.3298 281.257 23.5052 281.485 23.6328C281.713 23.7604 281.984 23.8242 282.299 23.8242C282.604 23.8242 282.868 23.7604 283.092 23.6328C283.32 23.5052 283.507 23.3298 283.652 23.1064C283.798 22.8831 283.905 22.6234 283.974 22.3271C284.047 22.0309 284.083 21.7165 284.083 21.3838V21.2266C284.083 20.8984 284.047 20.5885 283.974 20.2969C283.905 20.0007 283.796 19.7386 283.646 19.5107C283.5 19.2829 283.313 19.1051 283.085 18.9775C282.862 18.8454 282.595 18.7793 282.285 18.7793C281.975 18.7793 281.706 18.8454 281.479 18.9775C281.255 19.1051 281.071 19.2829 280.925 19.5107C280.779 19.7386 280.672 20.0007 280.604 20.2969C280.535 20.5885 280.501 20.8984 280.501 21.2266ZM286.897 21.3838V21.2266C286.897 20.6934 286.974 20.1989 287.129 19.7432C287.284 19.2829 287.508 18.8841 287.799 18.5469C288.095 18.2051 288.455 17.9408 288.879 17.7539C289.308 17.5625 289.791 17.4668 290.329 17.4668C290.871 17.4668 291.354 17.5625 291.778 17.7539C292.206 17.9408 292.568 18.2051 292.865 18.5469C293.161 18.8841 293.386 19.2829 293.541 19.7432C293.696 20.1989 293.774 20.6934 293.774 21.2266V21.3838C293.774 21.917 293.696 22.4115 293.541 22.8672C293.386 23.3229 293.161 23.7217 292.865 24.0635C292.568 24.4007 292.208 24.665 291.785 24.8564C291.361 25.0433 290.88 25.1367 290.342 25.1367C289.8 25.1367 289.315 25.0433 288.886 24.8564C288.462 24.665 288.102 24.4007 287.806 24.0635C287.51 23.7217 287.284 23.3229 287.129 22.8672C286.974 22.4115 286.897 21.917 286.897 21.3838ZM288.544 21.2266V21.3838C288.544 21.7165 288.579 22.0309 288.647 22.3271C288.715 22.6234 288.822 22.8831 288.968 23.1064C289.114 23.3298 289.301 23.5052 289.529 23.6328C289.757 23.7604 290.028 23.8242 290.342 23.8242C290.648 23.8242 290.912 23.7604 291.135 23.6328C291.363 23.5052 291.55 23.3298 291.696 23.1064C291.842 22.8831 291.949 22.6234 292.017 22.3271C292.09 22.0309 292.126 21.7165 292.126 21.3838V21.2266C292.126 20.8984 292.09 20.5885 292.017 20.2969C291.949 20.0007 291.839 19.7386 291.689 19.5107C291.543 19.2829 291.356 19.1051 291.128 18.9775C290.905 18.8454 290.638 18.7793 290.329 18.7793C290.019 18.7793 289.75 18.8454 289.522 18.9775C289.299 19.1051 289.114 19.2829 288.968 19.5107C288.822 19.7386 288.715 20.0007 288.647 20.2969C288.579 20.5885 288.544 20.8984 288.544 21.2266ZM299.992 17.6035H301.489V24.7949C301.489 25.4603 301.348 26.0254 301.065 26.4902C300.783 26.9551 300.388 27.3083 299.883 27.5498C299.377 27.7959 298.791 27.9189 298.126 27.9189C297.843 27.9189 297.529 27.8779 297.182 27.7959C296.841 27.7139 296.508 27.5817 296.184 27.3994C295.865 27.2217 295.599 26.987 295.385 26.6953L296.157 25.7246C296.421 26.0391 296.713 26.2692 297.032 26.415C297.351 26.5609 297.686 26.6338 298.037 26.6338C298.415 26.6338 298.736 26.5632 299.001 26.4219C299.27 26.2852 299.477 26.0824 299.623 25.8135C299.769 25.5446 299.842 25.2165 299.842 24.8291V19.2783L299.992 17.6035ZM294.968 21.3838V21.2402C294.968 20.6797 295.036 20.1693 295.173 19.709C295.309 19.2441 295.505 18.8454 295.761 18.5127C296.016 18.1755 296.326 17.918 296.69 17.7402C297.055 17.5579 297.467 17.4668 297.928 17.4668C298.406 17.4668 298.814 17.5534 299.151 17.7266C299.493 17.8997 299.778 18.1481 300.006 18.4717C300.234 18.7907 300.411 19.1735 300.539 19.6201C300.671 20.0622 300.769 20.5544 300.833 21.0967V21.5547C300.774 22.0833 300.673 22.5664 300.532 23.0039C300.391 23.4414 300.204 23.8197 299.971 24.1387C299.739 24.4577 299.452 24.7038 299.11 24.877C298.773 25.0501 298.374 25.1367 297.914 25.1367C297.463 25.1367 297.055 25.0433 296.69 24.8564C296.33 24.6696 296.02 24.4076 295.761 24.0703C295.505 23.7331 295.309 23.3366 295.173 22.8809C295.036 22.4206 294.968 21.9215 294.968 21.3838ZM296.615 21.2402V21.3838C296.615 21.721 296.647 22.0355 296.711 22.3271C296.779 22.6188 296.882 22.8763 297.018 23.0996C297.16 23.3184 297.337 23.4915 297.552 23.6191C297.77 23.7422 298.028 23.8037 298.324 23.8037C298.711 23.8037 299.028 23.7217 299.274 23.5576C299.525 23.3936 299.716 23.1725 299.848 22.8945C299.985 22.612 300.081 22.2975 300.136 21.9512V20.7139C300.108 20.445 300.051 20.1943 299.965 19.9619C299.883 19.7295 299.771 19.5267 299.63 19.3535C299.488 19.1758 299.311 19.0391 299.096 18.9434C298.882 18.8431 298.629 18.793 298.338 18.793C298.041 18.793 297.784 18.8568 297.565 18.9844C297.346 19.112 297.166 19.2874 297.025 19.5107C296.888 19.734 296.786 19.9938 296.718 20.29C296.649 20.5863 296.615 20.903 296.615 21.2402ZM305.062 14.5V25H303.407V14.5H305.062ZM310.227 25.1367C309.68 25.1367 309.186 25.0479 308.744 24.8701C308.306 24.6878 307.933 24.4349 307.623 24.1113C307.317 23.7878 307.083 23.4072 306.919 22.9697C306.754 22.5322 306.672 22.0605 306.672 21.5547V21.2812C306.672 20.7025 306.757 20.1784 306.925 19.709C307.094 19.2396 307.329 18.8385 307.629 18.5059C307.93 18.1686 308.286 17.9111 308.696 17.7334C309.106 17.5557 309.55 17.4668 310.029 17.4668C310.558 17.4668 311.02 17.5557 311.417 17.7334C311.813 17.9111 312.141 18.1618 312.401 18.4854C312.665 18.8044 312.861 19.1849 312.989 19.627C313.121 20.069 313.187 20.5566 313.187 21.0898V21.7939H307.472V20.6113H311.56V20.4814C311.551 20.1852 311.492 19.9072 311.382 19.6475C311.278 19.3877 311.116 19.1781 310.897 19.0186C310.678 18.859 310.387 18.7793 310.022 18.7793C309.749 18.7793 309.505 18.8385 309.291 18.957C309.081 19.071 308.906 19.2373 308.764 19.4561C308.623 19.6748 308.514 19.9391 308.436 20.249C308.363 20.5544 308.327 20.8984 308.327 21.2812V21.5547C308.327 21.8783 308.37 22.179 308.457 22.457C308.548 22.7305 308.68 22.9697 308.853 23.1748C309.026 23.3799 309.236 23.5417 309.482 23.6602C309.728 23.7741 310.008 23.8311 310.323 23.8311C310.719 23.8311 311.073 23.7513 311.382 23.5918C311.692 23.4323 311.961 23.2067 312.189 22.915L313.057 23.7559C312.898 23.9883 312.69 24.2116 312.435 24.4258C312.18 24.6354 311.868 24.8063 311.499 24.9385C311.134 25.0706 310.71 25.1367 310.227 25.1367Z" fill="white"/>
</svg>
